<svg xmlns="http://www.w3.org/2000/svg" xmlns:xlink="http://www.w3.org/1999/xlink" width="1080" zoomAndPan="magnify" viewBox="0 0 810 1439.999935" height="1920" preserveAspectRatio="xMidYMid meet" version="1.0"><rect x="-81" width="972" fill="#ffffff" y="-143.999994" height="1727.999922" fill-opacity="1"/><rect x="-81" width="972" fill="#ffffff" y="-143.999994" height="1727.999922" fill-opacity="1"/><rect x="-81" width="972" fill="#ffffff" y="-143.999994" height="1727.999922" fill-opacity="1"/><rect x="-81" width="972" fill="#001220" y="-143.999994" height="1727.999922" fill-opacity="1"/><path fill="#a7233a" d="M 595.5 1035 C 592.160156 1035 588.824219 1034.917969 585.488281 1034.753906 C 582.15625 1034.589844 578.828125 1034.34375 575.503906 1034.015625 C 572.183594 1033.691406 568.871094 1033.28125 565.566406 1032.792969 C 562.265625 1032.300781 558.976562 1031.730469 555.703125 1031.078125 C 552.425781 1030.429688 549.171875 1029.699219 545.933594 1028.886719 C 542.695312 1028.074219 539.476562 1027.183594 536.28125 1026.214844 C 533.085938 1025.246094 529.917969 1024.199219 526.773438 1023.074219 C 523.632812 1021.949219 520.515625 1020.75 517.433594 1019.472656 C 514.347656 1018.195312 511.296875 1016.839844 508.277344 1015.414062 C 505.261719 1013.984375 502.28125 1012.484375 499.335938 1010.910156 C 496.390625 1009.335938 493.488281 1007.691406 490.621094 1005.976562 C 487.757812 1004.261719 484.941406 1002.472656 482.164062 1000.621094 C 479.386719 998.765625 476.660156 996.84375 473.976562 994.855469 C 471.296875 992.867188 468.664062 990.8125 466.082031 988.695312 C 463.503906 986.574219 460.976562 984.394531 458.503906 982.152344 C 456.027344 979.910156 453.609375 977.609375 451.25 975.25 C 448.890625 972.890625 446.589844 970.472656 444.347656 967.996094 C 442.105469 965.523438 439.925781 962.996094 437.804688 960.417969 C 435.6875 957.835938 433.632812 955.203125 431.644531 952.523438 C 429.65625 949.839844 427.734375 947.113281 425.878906 944.335938 C 424.027344 941.558594 422.238281 938.742188 420.523438 935.875 C 418.808594 933.011719 417.160156 930.109375 415.589844 927.164062 C 414.015625 924.21875 412.515625 921.238281 411.085938 918.222656 C 409.660156 915.203125 408.304688 912.152344 407.027344 909.066406 C 405.75 905.984375 404.550781 902.867188 403.425781 899.726562 C 402.300781 896.582031 401.253906 893.414062 400.285156 890.21875 C 399.316406 887.023438 398.425781 883.804688 397.613281 880.566406 C 396.800781 877.328125 396.070312 874.074219 395.417969 870.796875 C 394.769531 867.523438 394.199219 864.234375 393.707031 860.933594 C 393.21875 857.628906 392.808594 854.316406 392.480469 850.996094 C 392.15625 847.671875 391.910156 844.34375 391.746094 841.007812 C 391.582031 837.675781 391.5 834.339844 391.5 831 C 391.5 827.660156 391.582031 824.324219 391.746094 820.988281 C 391.910156 817.65625 392.15625 814.328125 392.480469 811.003906 C 392.808594 807.683594 393.21875 804.371094 393.707031 801.066406 C 394.199219 797.765625 394.769531 794.476562 395.417969 791.203125 C 396.070312 787.925781 396.800781 784.671875 397.613281 781.433594 C 398.425781 778.195312 399.316406 774.976562 400.285156 771.78125 C 401.253906 768.585938 402.300781 765.417969 403.425781 762.273438 C 404.550781 759.132812 405.75 756.015625 407.027344 752.933594 C 408.304688 749.847656 409.660156 746.796875 411.085938 743.777344 C 412.515625 740.761719 414.015625 737.78125 415.589844 734.835938 C 417.160156 731.890625 418.808594 728.988281 420.523438 726.121094 C 422.238281 723.257812 424.027344 720.4375 425.878906 717.664062 C 427.734375 714.886719 429.65625 712.160156 431.644531 709.476562 C 433.632812 706.796875 435.6875 704.164062 437.804688 701.582031 C 439.925781 699.003906 442.105469 696.476562 444.347656 694 C 446.589844 691.527344 448.890625 689.109375 451.25 686.75 C 453.609375 684.390625 456.027344 682.085938 458.503906 679.847656 C 460.976562 677.605469 463.503906 675.421875 466.082031 673.304688 C 468.664062 671.1875 471.296875 669.132812 473.976562 667.144531 C 476.660156 665.15625 479.386719 663.234375 482.164062 661.378906 C 484.941406 659.523438 487.757812 657.738281 490.621094 656.023438 C 493.488281 654.308594 496.390625 652.660156 499.335938 651.089844 C 502.28125 649.515625 505.261719 648.011719 508.277344 646.585938 C 511.296875 645.160156 514.347656 643.804688 517.433594 642.527344 C 520.515625 641.25 523.632812 640.050781 526.773438 638.925781 C 529.917969 637.800781 533.085938 636.753906 536.28125 635.785156 C 539.476562 634.816406 542.695312 633.925781 545.933594 633.113281 C 549.171875 632.300781 552.425781 631.570312 555.703125 630.917969 C 558.976562 630.269531 562.265625 629.699219 565.566406 629.207031 C 568.871094 628.71875 572.183594 628.308594 575.503906 627.980469 C 578.828125 627.65625 582.15625 627.410156 585.488281 627.246094 C 588.824219 627.082031 592.160156 627 595.5 627 C 598.839844 627 602.175781 627.082031 605.511719 627.246094 C 608.84375 627.410156 612.171875 627.65625 615.496094 627.980469 C 618.816406 628.308594 622.128906 628.71875 625.433594 629.207031 C 628.734375 629.699219 632.023438 630.269531 635.296875 630.917969 C 638.574219 631.570312 641.828125 632.300781 645.066406 633.113281 C 648.304688 633.925781 651.523438 634.816406 654.71875 635.785156 C 657.914062 636.753906 661.082031 637.800781 664.226562 638.925781 C 667.367188 640.050781 670.484375 641.25 673.566406 642.527344 C 676.652344 643.804688 679.703125 645.160156 682.722656 646.585938 C 685.738281 648.011719 688.71875 649.515625 691.664062 651.089844 C 694.609375 652.660156 697.511719 654.308594 700.375 656.023438 C 703.242188 657.738281 706.058594 659.523438 708.835938 661.378906 C 711.613281 663.234375 714.339844 665.15625 717.023438 667.144531 C 719.703125 669.132812 722.335938 671.1875 724.917969 673.304688 C 727.496094 675.421875 730.023438 677.605469 732.496094 679.847656 C 734.972656 682.085938 737.390625 684.390625 739.75 686.75 C 742.109375 689.109375 744.410156 691.527344 746.652344 694 C 748.894531 696.476562 751.074219 699.003906 753.195312 701.582031 C 755.3125 704.164062 757.367188 706.796875 759.355469 709.476562 C 761.34375 712.160156 763.265625 714.886719 765.121094 717.664062 C 766.972656 720.4375 768.761719 723.257812 770.476562 726.121094 C 772.191406 728.988281 773.839844 731.890625 775.410156 734.835938 C 776.984375 737.777344 778.484375 740.761719 779.914062 743.777344 C 781.339844 746.796875 782.695312 749.847656 783.972656 752.933594 C 785.25 756.015625 786.449219 759.128906 787.574219 762.273438 C 788.699219 765.417969 789.746094 768.585938 790.714844 771.78125 C 791.683594 774.976562 792.574219 778.195312 793.386719 781.433594 C 794.199219 784.671875 794.929688 787.925781 795.582031 791.203125 C 796.230469 794.476562 796.800781 797.765625 797.292969 801.066406 C 797.78125 804.371094 798.191406 807.683594 798.519531 811.003906 C 798.84375 814.328125 799.089844 817.65625 799.253906 820.988281 C 799.417969 824.324219 799.5 827.660156 799.5 831 C 799.5 834.339844 799.417969 837.675781 799.253906 841.007812 C 799.089844 844.34375 798.84375 847.671875 798.519531 850.996094 C 798.191406 854.316406 797.78125 857.628906 797.292969 860.933594 C 796.800781 864.234375 796.230469 867.523438 795.582031 870.796875 C 794.929688 874.074219 794.199219 877.328125 793.386719 880.566406 C 792.574219 883.804688 791.683594 887.023438 790.714844 890.21875 C 789.746094 893.414062 788.699219 896.582031 787.574219 899.726562 C 786.449219 902.867188 785.25 905.984375 783.972656 909.066406 C 782.695312 912.152344 781.339844 915.203125 779.914062 918.222656 C 778.484375 921.238281 776.984375 924.21875 775.410156 927.164062 C 773.839844 930.109375 772.191406 933.011719 770.476562 935.875 C 768.761719 938.742188 766.972656 941.558594 765.121094 944.335938 C 763.265625 947.113281 761.34375 949.839844 759.355469 952.523438 C 757.367188 955.203125 755.3125 957.835938 753.195312 960.417969 C 751.074219 962.996094 748.894531 965.523438 746.652344 967.996094 C 744.410156 970.472656 742.109375 972.890625 739.75 975.25 C 737.390625 977.609375 734.972656 979.910156 732.496094 982.152344 C 730.023438 984.394531 727.496094 986.574219 724.917969 988.695312 C 722.335938 990.8125 719.703125 992.867188 717.023438 994.855469 C 714.339844 996.84375 711.613281 998.765625 708.835938 1000.621094 C 706.058594 1002.472656 703.242188 1004.261719 700.375 1005.976562 C 697.511719 1007.691406 694.609375 1009.335938 691.664062 1010.910156 C 688.71875 1012.484375 685.738281 1013.984375 682.722656 1015.414062 C 679.703125 1016.839844 676.652344 1018.195312 673.566406 1019.472656 C 670.484375 1020.75 667.367188 1021.949219 664.226562 1023.074219 C 661.082031 1024.199219 657.914062 1025.246094 654.71875 1026.214844 C 651.523438 1027.183594 648.304688 1028.074219 645.066406 1028.886719 C 641.828125 1029.699219 638.574219 1030.429688 635.296875 1031.078125 C 632.023438 1031.730469 628.734375 1032.300781 625.433594 1032.792969 C 622.128906 1033.28125 618.816406 1033.691406 615.496094 1034.015625 C 612.171875 1034.34375 608.84375 1034.589844 605.511719 1034.753906 C 602.175781 1034.917969 598.839844 1035 595.5 1035 Z M 595.5 1035 " fill-opacity="1" fill-rule="nonzero"/><path fill="#a7233a" d="M 37.5 1041 C 36.445312 1041 35.390625 1040.972656 34.335938 1040.921875 C 33.28125 1040.871094 32.226562 1040.792969 31.179688 1040.6875 C 30.128906 1040.585938 29.082031 1040.457031 28.035156 1040.300781 C 26.992188 1040.148438 25.953125 1039.964844 24.917969 1039.761719 C 23.882812 1039.554688 22.851562 1039.324219 21.828125 1039.066406 C 20.804688 1038.808594 19.785156 1038.527344 18.777344 1038.222656 C 17.765625 1037.917969 16.765625 1037.585938 15.769531 1037.230469 C 14.777344 1036.875 13.792969 1036.492188 12.816406 1036.089844 C 11.839844 1035.6875 10.878906 1035.257812 9.921875 1034.808594 C 8.96875 1034.355469 8.027344 1033.882812 7.09375 1033.382812 C 6.164062 1032.886719 5.246094 1032.367188 4.339844 1031.824219 C 3.433594 1031.28125 2.542969 1030.714844 1.664062 1030.128906 C 0.789062 1029.542969 -0.0742188 1028.933594 -0.921875 1028.308594 C -1.769531 1027.679688 -2.601562 1027.027344 -3.417969 1026.359375 C -4.234375 1025.6875 -5.035156 1025 -5.816406 1024.292969 C -6.597656 1023.582031 -7.363281 1022.855469 -8.109375 1022.109375 C -8.855469 1021.363281 -9.582031 1020.597656 -10.292969 1019.816406 C -11 1019.03125 -11.6875 1018.234375 -12.359375 1017.417969 C -13.027344 1016.601562 -13.679688 1015.769531 -14.308594 1014.921875 C -14.933594 1014.074219 -15.542969 1013.210938 -16.128906 1012.335938 C -16.714844 1011.457031 -17.28125 1010.566406 -17.824219 1009.660156 C -18.367188 1008.753906 -18.886719 1007.835938 -19.382812 1006.90625 C -19.882812 1005.972656 -20.355469 1005.03125 -20.808594 1004.078125 C -21.257812 1003.121094 -21.6875 1002.15625 -22.089844 1001.183594 C -22.492188 1000.207031 -22.875 999.222656 -23.230469 998.230469 C -23.585938 997.234375 -23.917969 996.234375 -24.222656 995.222656 C -24.527344 994.214844 -24.808594 993.195312 -25.066406 992.171875 C -25.324219 991.148438 -25.554688 990.117188 -25.761719 989.082031 C -25.964844 988.046875 -26.148438 987.007812 -26.300781 985.964844 C -26.457031 984.917969 -26.585938 983.871094 -26.6875 982.820312 C -26.792969 981.773438 -26.871094 980.71875 -26.921875 979.664062 C -26.972656 978.609375 -27 977.554688 -27 976.5 C -27 975.445312 -26.972656 974.390625 -26.921875 973.335938 C -26.871094 972.28125 -26.792969 971.226562 -26.6875 970.175781 C -26.585938 969.128906 -26.457031 968.078125 -26.300781 967.035156 C -26.148438 965.992188 -25.964844 964.953125 -25.761719 963.917969 C -25.554688 962.882812 -25.324219 961.851562 -25.066406 960.828125 C -24.808594 959.804688 -24.527344 958.785156 -24.222656 957.777344 C -23.917969 956.765625 -23.585938 955.765625 -23.230469 954.769531 C -22.875 953.777344 -22.492188 952.792969 -22.089844 951.816406 C -21.6875 950.839844 -21.257812 949.875 -20.808594 948.921875 C -20.355469 947.96875 -19.882812 947.027344 -19.382812 946.09375 C -18.886719 945.164062 -18.367188 944.246094 -17.824219 943.339844 C -17.28125 942.433594 -16.714844 941.542969 -16.128906 940.664062 C -15.542969 939.789062 -14.933594 938.925781 -14.308594 938.078125 C -13.679688 937.230469 -13.027344 936.398438 -12.359375 935.582031 C -11.6875 934.765625 -11 933.964844 -10.292969 933.183594 C -9.582031 932.402344 -8.855469 931.636719 -8.109375 930.890625 C -7.363281 930.144531 -6.597656 929.417969 -5.816406 928.707031 C -5.035156 928 -4.234375 927.308594 -3.417969 926.640625 C -2.601562 925.972656 -1.769531 925.320312 -0.921875 924.691406 C -0.0742188 924.0625 0.789062 923.457031 1.664062 922.871094 C 2.542969 922.285156 3.433594 921.71875 4.339844 921.175781 C 5.246094 920.632812 6.164062 920.113281 7.09375 919.617188 C 8.027344 919.117188 8.96875 918.644531 9.921875 918.191406 C 10.878906 917.742188 11.839844 917.3125 12.816406 916.910156 C 13.792969 916.503906 14.777344 916.125 15.769531 915.769531 C 16.765625 915.414062 17.765625 915.082031 18.777344 914.777344 C 19.785156 914.46875 20.804688 914.1875 21.828125 913.933594 C 22.851562 913.675781 23.882812 913.445312 24.917969 913.238281 C 25.953125 913.03125 26.992188 912.851562 28.035156 912.699219 C 29.078125 912.542969 30.128906 912.414062 31.179688 912.308594 C 32.226562 912.207031 33.28125 912.128906 34.335938 912.078125 C 35.390625 912.027344 36.445312 912 37.5 912 C 38.554688 912 39.609375 912.027344 40.664062 912.078125 C 41.71875 912.128906 42.773438 912.207031 43.820312 912.308594 C 44.871094 912.414062 45.921875 912.542969 46.964844 912.699219 C 48.007812 912.851562 49.046875 913.03125 50.082031 913.238281 C 51.117188 913.445312 52.148438 913.675781 53.171875 913.933594 C 54.195312 914.1875 55.214844 914.46875 56.222656 914.777344 C 57.234375 915.082031 58.234375 915.414062 59.230469 915.769531 C 60.222656 916.125 61.207031 916.503906 62.183594 916.910156 C 63.160156 917.3125 64.125 917.742188 65.078125 918.191406 C 66.03125 918.644531 66.972656 919.117188 67.90625 919.617188 C 68.835938 920.113281 69.753906 920.632812 70.660156 921.175781 C 71.566406 921.71875 72.457031 922.285156 73.335938 922.871094 C 74.210938 923.457031 75.074219 924.0625 75.921875 924.691406 C 76.769531 925.320312 77.601562 925.972656 78.417969 926.640625 C 79.234375 927.308594 80.035156 928 80.816406 928.707031 C 81.597656 929.417969 82.363281 930.144531 83.109375 930.890625 C 83.855469 931.636719 84.582031 932.402344 85.292969 933.183594 C 86 933.964844 86.691406 934.765625 87.359375 935.582031 C 88.027344 936.398438 88.679688 937.230469 89.308594 938.078125 C 89.9375 938.925781 90.542969 939.789062 91.128906 940.664062 C 91.714844 941.542969 92.28125 942.433594 92.824219 943.339844 C 93.367188 944.246094 93.886719 945.164062 94.382812 946.09375 C 94.882812 947.027344 95.355469 947.96875 95.808594 948.921875 C 96.257812 949.875 96.6875 950.839844 97.089844 951.816406 C 97.496094 952.792969 97.875 953.777344 98.230469 954.769531 C 98.585938 955.765625 98.917969 956.765625 99.222656 957.777344 C 99.527344 958.785156 99.8125 959.804688 100.066406 960.828125 C 100.324219 961.851562 100.554688 962.882812 100.761719 963.917969 C 100.964844 964.953125 101.148438 965.992188 101.300781 967.035156 C 101.457031 968.078125 101.585938 969.128906 101.6875 970.175781 C 101.792969 971.226562 101.871094 972.28125 101.921875 973.335938 C 101.972656 974.390625 102 975.445312 102 976.5 C 102 977.554688 101.972656 978.609375 101.921875 979.664062 C 101.871094 980.71875 101.792969 981.773438 101.6875 982.820312 C 101.585938 983.871094 101.457031 984.917969 101.300781 985.964844 C 101.148438 987.007812 100.964844 988.046875 100.761719 989.082031 C 100.554688 990.117188 100.324219 991.148438 100.066406 992.171875 C 99.8125 993.195312 99.527344 994.214844 99.222656 995.222656 C 98.917969 996.234375 98.585938 997.234375 98.230469 998.230469 C 97.875 999.222656 97.496094 1000.207031 97.089844 1001.183594 C 96.6875 1002.15625 96.257812 1003.121094 95.808594 1004.078125 C 95.355469 1005.03125 94.882812 1005.972656 94.382812 1006.90625 C 93.886719 1007.835938 93.367188 1008.753906 92.824219 1009.660156 C 92.28125 1010.566406 91.714844 1011.457031 91.128906 1012.335938 C 90.542969 1013.210938 89.9375 1014.074219 89.308594 1014.921875 C 88.679688 1015.769531 88.027344 1016.601562 87.359375 1017.417969 C 86.691406 1018.234375 86 1019.03125 85.292969 1019.816406 C 84.582031 1020.597656 83.855469 1021.363281 83.109375 1022.109375 C 82.363281 1022.855469 81.597656 1023.582031 80.816406 1024.292969 C 80.035156 1025 79.234375 1025.6875 78.417969 1026.359375 C 77.601562 1027.027344 76.769531 1027.679688 75.921875 1028.308594 C 75.074219 1028.933594 74.210938 1029.542969 73.335938 1030.128906 C 72.457031 1030.714844 71.566406 1031.28125 70.660156 1031.824219 C 69.753906 1032.367188 68.835938 1032.886719 67.90625 1033.382812 C 66.972656 1033.882812 66.03125 1034.355469 65.078125 1034.808594 C 64.125 1035.257812 63.160156 1035.6875 62.183594 1036.089844 C 61.207031 1036.492188 60.222656 1036.875 59.230469 1037.230469 C 58.234375 1037.585938 57.234375 1037.917969 56.222656 1038.222656 C 55.214844 1038.527344 54.195312 1038.808594 53.171875 1039.066406 C 52.148438 1039.324219 51.117188 1039.554688 50.082031 1039.761719 C 49.046875 1039.964844 48.007812 1040.148438 46.964844 1040.300781 C 45.921875 1040.457031 44.871094 1040.585938 43.820312 1040.6875 C 42.773438 1040.792969 41.71875 1040.871094 40.664062 1040.921875 C 39.609375 1040.972656 38.554688 1041 37.5 1041 Z M 37.5 1041 " fill-opacity="1" fill-rule="nonzero"/><path fill="#a7233a" d="M 120 231 C 117.71875 231 115.433594 230.945312 113.15625 230.832031 C 110.875 230.71875 108.597656 230.550781 106.328125 230.328125 C 104.054688 230.105469 101.789062 229.824219 99.53125 229.488281 C 97.273438 229.15625 95.023438 228.765625 92.785156 228.320312 C 90.546875 227.875 88.320312 227.375 86.105469 226.820312 C 83.890625 226.265625 81.691406 225.65625 79.503906 224.992188 C 77.320312 224.332031 75.152344 223.613281 73.003906 222.84375 C 70.855469 222.078125 68.726562 221.253906 66.617188 220.382812 C 64.507812 219.507812 62.421875 218.582031 60.355469 217.605469 C 58.292969 216.628906 56.253906 215.605469 54.238281 214.527344 C 52.226562 213.453125 50.242188 212.328125 48.28125 211.152344 C 46.324219 209.980469 44.394531 208.757812 42.5 207.488281 C 40.601562 206.222656 38.734375 204.90625 36.898438 203.546875 C 35.066406 202.1875 33.265625 200.785156 31.503906 199.335938 C 29.738281 197.886719 28.007812 196.394531 26.316406 194.863281 C 24.625 193.328125 22.972656 191.753906 21.359375 190.140625 C 19.746094 188.527344 18.171875 186.875 16.636719 185.183594 C 15.105469 183.492188 13.613281 181.761719 12.164062 179.996094 C 10.714844 178.234375 9.3125 176.433594 7.953125 174.601562 C 6.59375 172.765625 5.277344 170.898438 4.011719 169.003906 C 2.742188 167.105469 1.519531 165.175781 0.347656 163.21875 C -0.828125 161.257812 -1.953125 159.273438 -3.027344 157.261719 C -4.105469 155.246094 -5.128906 153.207031 -6.105469 151.144531 C -7.082031 149.078125 -8.007812 146.992188 -8.882812 144.882812 C -9.753906 142.773438 -10.574219 140.644531 -11.34375 138.496094 C -12.113281 136.347656 -12.832031 134.179688 -13.492188 131.996094 C -14.15625 129.808594 -14.765625 127.609375 -15.320312 125.394531 C -15.875 123.179688 -16.375 120.953125 -16.820312 118.714844 C -17.265625 116.476562 -17.65625 114.226562 -17.988281 111.96875 C -18.324219 109.710938 -18.605469 107.445312 -18.828125 105.171875 C -19.050781 102.902344 -19.21875 100.625 -19.332031 98.34375 C -19.445312 96.066406 -19.5 93.78125 -19.5 91.5 C -19.5 89.21875 -19.445312 86.933594 -19.332031 84.65625 C -19.21875 82.375 -19.050781 80.097656 -18.828125 77.828125 C -18.605469 75.554688 -18.324219 73.289062 -17.988281 71.03125 C -17.65625 68.773438 -17.265625 66.523438 -16.820312 64.285156 C -16.375 62.046875 -15.875 59.820312 -15.320312 57.605469 C -14.765625 55.390625 -14.15625 53.191406 -13.492188 51.003906 C -12.832031 48.820312 -12.113281 46.652344 -11.34375 44.503906 C -10.574219 42.355469 -9.753906 40.226562 -8.882812 38.117188 C -8.007812 36.007812 -7.082031 33.917969 -6.105469 31.855469 C -5.128906 29.792969 -4.105469 27.753906 -3.027344 25.738281 C -1.953125 23.726562 -0.828125 21.742188 0.347656 19.78125 C 1.519531 17.824219 2.742188 15.894531 4.011719 13.996094 C 5.277344 12.101562 6.59375 10.234375 7.953125 8.398438 C 9.3125 6.566406 10.71875 4.765625 12.164062 3.003906 C 13.613281 1.238281 15.105469 -0.492188 16.636719 -2.183594 C 18.171875 -3.875 19.746094 -5.527344 21.359375 -7.140625 C 22.972656 -8.753906 24.625 -10.328125 26.316406 -11.863281 C 28.007812 -13.394531 29.738281 -14.886719 31.503906 -16.335938 C 33.265625 -17.785156 35.066406 -19.1875 36.898438 -20.546875 C 38.734375 -21.90625 40.601562 -23.222656 42.5 -24.488281 C 44.394531 -25.757812 46.324219 -26.980469 48.28125 -28.152344 C 50.242188 -29.328125 52.226562 -30.453125 54.242188 -31.527344 C 56.253906 -32.605469 58.292969 -33.628906 60.355469 -34.605469 C 62.421875 -35.582031 64.507812 -36.507812 66.617188 -37.382812 C 68.726562 -38.253906 70.855469 -39.078125 73.003906 -39.84375 C 75.152344 -40.613281 77.320312 -41.332031 79.503906 -41.992188 C 81.691406 -42.65625 83.890625 -43.265625 86.105469 -43.820312 C 88.320312 -44.375 90.546875 -44.875 92.785156 -45.320312 C 95.023438 -45.765625 97.273438 -46.15625 99.53125 -46.488281 C 101.789062 -46.824219 104.054688 -47.105469 106.328125 -47.328125 C 108.597656 -47.550781 110.875 -47.71875 113.15625 -47.832031 C 115.433594 -47.945312 117.71875 -48 120 -48 C 122.28125 -48 124.566406 -47.945312 126.84375 -47.832031 C 129.125 -47.71875 131.402344 -47.550781 133.671875 -47.328125 C 135.945312 -47.105469 138.210938 -46.824219 140.46875 -46.488281 C 142.726562 -46.15625 144.976562 -45.765625 147.214844 -45.320312 C 149.453125 -44.875 151.679688 -44.375 153.894531 -43.820312 C 156.109375 -43.265625 158.308594 -42.65625 160.496094 -41.992188 C 162.679688 -41.332031 164.847656 -40.613281 166.996094 -39.84375 C 169.144531 -39.078125 171.273438 -38.253906 173.382812 -37.382812 C 175.492188 -36.507812 177.582031 -35.582031 179.644531 -34.605469 C 181.707031 -33.628906 183.746094 -32.605469 185.761719 -31.527344 C 187.773438 -30.453125 189.757812 -29.328125 191.71875 -28.152344 C 193.675781 -26.980469 195.605469 -25.757812 197.503906 -24.488281 C 199.398438 -23.222656 201.265625 -21.90625 203.101562 -20.546875 C 204.933594 -19.1875 206.734375 -17.785156 208.496094 -16.335938 C 210.261719 -14.886719 211.992188 -13.394531 213.683594 -11.863281 C 215.375 -10.328125 217.027344 -8.753906 218.640625 -7.140625 C 220.253906 -5.527344 221.828125 -3.875 223.363281 -2.183594 C 224.894531 -0.492188 226.386719 1.238281 227.835938 3.003906 C 229.285156 4.765625 230.6875 6.566406 232.046875 8.398438 C 233.40625 10.234375 234.722656 12.101562 235.988281 13.996094 C 237.257812 15.894531 238.480469 17.824219 239.652344 19.78125 C 240.828125 21.742188 241.953125 23.726562 243.027344 25.738281 C 244.105469 27.753906 245.128906 29.792969 246.105469 31.855469 C 247.082031 33.917969 248.007812 36.007812 248.882812 38.117188 C 249.753906 40.226562 250.578125 42.355469 251.34375 44.503906 C 252.113281 46.652344 252.832031 48.820312 253.492188 51.003906 C 254.15625 53.191406 254.765625 55.390625 255.320312 57.605469 C 255.875 59.820312 256.375 62.046875 256.820312 64.285156 C 257.265625 66.523438 257.65625 68.773438 257.988281 71.03125 C 258.324219 73.289062 258.605469 75.554688 258.828125 77.828125 C 259.050781 80.097656 259.21875 82.375 259.332031 84.65625 C 259.445312 86.933594 259.5 89.21875 259.5 91.5 C 259.5 93.78125 259.445312 96.066406 259.332031 98.34375 C 259.21875 100.625 259.050781 102.902344 258.828125 105.171875 C 258.605469 107.445312 258.324219 109.710938 257.988281 111.96875 C 257.65625 114.226562 257.265625 116.476562 256.820312 118.714844 C 256.375 120.953125 255.875 123.179688 255.320312 125.394531 C 254.765625 127.609375 254.15625 129.808594 253.492188 131.996094 C 252.832031 134.179688 252.113281 136.347656 251.34375 138.496094 C 250.578125 140.644531 249.753906 142.773438 248.882812 144.882812 C 248.007812 146.992188 247.082031 149.078125 246.105469 151.144531 C 245.128906 153.207031 244.105469 155.246094 243.027344 157.261719 C 241.953125 159.273438 240.828125 161.257812 239.652344 163.21875 C 238.480469 165.175781 237.257812 167.105469 235.988281 169.003906 C 234.722656 170.898438 233.40625 172.765625 232.046875 174.601562 C 230.6875 176.433594 229.285156 178.234375 227.835938 179.996094 C 226.386719 181.761719 224.894531 183.492188 223.363281 185.183594 C 221.828125 186.875 220.253906 188.527344 218.640625 190.140625 C 217.027344 191.753906 215.375 193.328125 213.683594 194.863281 C 211.992188 196.394531 210.261719 197.886719 208.496094 199.335938 C 206.734375 200.785156 204.933594 202.1875 203.101562 203.546875 C 201.265625 204.90625 199.398438 206.222656 197.503906 207.488281 C 195.605469 208.757812 193.675781 209.980469 191.71875 211.152344 C 189.757812 212.328125 187.773438 213.453125 185.761719 214.527344 C 183.746094 215.605469 181.707031 216.628906 179.644531 217.605469 C 177.582031 218.582031 175.492188 219.507812 173.382812 220.382812 C 171.273438 221.253906 169.144531 222.078125 166.996094 222.84375 C 164.847656 223.613281 162.679688 224.332031 160.496094 224.992188 C 158.308594 225.65625 156.109375 226.265625 153.894531 226.820312 C 151.679688 227.375 149.453125 227.875 147.214844 228.320312 C 144.976562 228.765625 142.726562 229.15625 140.46875 229.488281 C 138.210938 229.824219 135.945312 230.105469 133.671875 230.328125 C 131.402344 230.550781 129.125 230.71875 126.84375 230.832031 C 124.566406 230.945312 122.28125 231 120 231 Z M 120 231 " fill-opacity="1" fill-rule="nonzero"/><path fill="#a7233a" d="M 373.5 570 C 371.265625 570 369.035156 569.945312 366.800781 569.835938 C 364.570312 569.726562 362.34375 569.5625 360.121094 569.34375 C 357.898438 569.125 355.679688 568.851562 353.472656 568.523438 C 351.261719 568.195312 349.0625 567.8125 346.871094 567.378906 C 344.679688 566.941406 342.5 566.453125 340.332031 565.910156 C 338.167969 565.367188 336.015625 564.769531 333.875 564.121094 C 331.738281 563.472656 329.617188 562.773438 327.515625 562.019531 C 325.410156 561.269531 323.328125 560.464844 321.265625 559.609375 C 319.199219 558.753906 317.160156 557.847656 315.140625 556.894531 C 313.121094 555.9375 311.125 554.933594 309.15625 553.882812 C 307.183594 552.828125 305.242188 551.726562 303.324219 550.578125 C 301.410156 549.429688 299.523438 548.238281 297.664062 546.996094 C 295.808594 545.753906 293.980469 544.46875 292.1875 543.136719 C 290.394531 541.808594 288.632812 540.433594 286.90625 539.015625 C 285.179688 537.597656 283.488281 536.140625 281.832031 534.640625 C 280.175781 533.140625 278.558594 531.597656 276.980469 530.019531 C 275.398438 528.441406 273.859375 526.824219 272.359375 525.167969 C 270.859375 523.511719 269.402344 521.820312 267.984375 520.09375 C 266.566406 518.367188 265.191406 516.605469 263.863281 514.8125 C 262.53125 513.019531 261.246094 511.191406 260.003906 509.335938 C 258.761719 507.476562 257.570312 505.589844 256.421875 503.675781 C 255.273438 501.757812 254.171875 499.816406 253.117188 497.84375 C 252.066406 495.875 251.0625 493.878906 250.105469 491.859375 C 249.152344 489.839844 248.246094 487.800781 247.390625 485.734375 C 246.535156 483.671875 245.730469 481.589844 244.980469 479.484375 C 244.226562 477.382812 243.527344 475.261719 242.878906 473.125 C 242.230469 470.984375 241.632812 468.832031 241.089844 466.667969 C 240.546875 464.5 240.058594 462.320312 239.621094 460.128906 C 239.1875 457.9375 238.804688 455.738281 238.476562 453.527344 C 238.148438 451.320312 237.875 449.101562 237.65625 446.878906 C 237.4375 444.65625 237.273438 442.429688 237.164062 440.199219 C 237.054688 437.964844 237 435.734375 237 433.5 C 237 431.265625 237.054688 429.035156 237.164062 426.800781 C 237.273438 424.570312 237.4375 422.34375 237.65625 420.121094 C 237.875 417.898438 238.148438 415.679688 238.476562 413.472656 C 238.804688 411.261719 239.1875 409.0625 239.621094 406.871094 C 240.058594 404.679688 240.546875 402.5 241.089844 400.332031 C 241.632812 398.167969 242.230469 396.015625 242.878906 393.875 C 243.527344 391.738281 244.226562 389.617188 244.980469 387.515625 C 245.730469 385.410156 246.535156 383.328125 247.390625 381.261719 C 248.246094 379.199219 249.152344 377.15625 250.105469 375.136719 C 251.0625 373.121094 252.066406 371.125 253.117188 369.152344 C 254.171875 367.183594 255.273438 365.242188 256.421875 363.324219 C 257.570312 361.410156 258.761719 359.523438 260.003906 357.664062 C 261.246094 355.808594 262.53125 353.980469 263.863281 352.1875 C 265.191406 350.394531 266.566406 348.632812 267.984375 346.90625 C 269.402344 345.179688 270.859375 343.488281 272.359375 341.832031 C 273.859375 340.175781 275.398438 338.558594 276.980469 336.980469 C 278.558594 335.398438 280.175781 333.859375 281.832031 332.359375 C 283.488281 330.859375 285.179688 329.402344 286.90625 327.984375 C 288.632812 326.566406 290.394531 325.191406 292.1875 323.863281 C 293.980469 322.53125 295.808594 321.246094 297.664062 320.003906 C 299.523438 318.761719 301.410156 317.570312 303.324219 316.421875 C 305.242188 315.273438 307.183594 314.171875 309.15625 313.117188 C 311.125 312.066406 313.121094 311.058594 315.140625 310.105469 C 317.160156 309.148438 319.199219 308.246094 321.265625 307.390625 C 323.328125 306.535156 325.410156 305.730469 327.515625 304.980469 C 329.617188 304.226562 331.738281 303.527344 333.875 302.878906 C 336.015625 302.230469 338.167969 301.632812 340.332031 301.089844 C 342.5 300.546875 344.679688 300.058594 346.871094 299.621094 C 349.0625 299.1875 351.261719 298.804688 353.472656 298.476562 C 355.679688 298.148438 357.898438 297.875 360.121094 297.65625 C 362.34375 297.4375 364.570312 297.273438 366.800781 297.164062 C 369.035156 297.054688 371.265625 297 373.5 297 C 375.734375 297 377.964844 297.054688 380.199219 297.164062 C 382.429688 297.273438 384.65625 297.4375 386.878906 297.65625 C 389.101562 297.875 391.320312 298.148438 393.527344 298.476562 C 395.738281 298.804688 397.9375 299.1875 400.128906 299.621094 C 402.320312 300.058594 404.5 300.546875 406.667969 301.089844 C 408.832031 301.632812 410.984375 302.230469 413.125 302.878906 C 415.261719 303.527344 417.382812 304.226562 419.484375 304.980469 C 421.589844 305.730469 423.671875 306.535156 425.734375 307.390625 C 427.800781 308.246094 429.84375 309.148438 431.859375 310.105469 C 433.878906 311.058594 435.875 312.066406 437.84375 313.117188 C 439.816406 314.171875 441.757812 315.273438 443.675781 316.421875 C 445.589844 317.570312 447.476562 318.761719 449.335938 320.003906 C 451.191406 321.246094 453.019531 322.53125 454.8125 323.863281 C 456.605469 325.191406 458.367188 326.566406 460.09375 327.984375 C 461.820312 329.402344 463.511719 330.859375 465.167969 332.359375 C 466.824219 333.859375 468.441406 335.398438 470.019531 336.980469 C 471.601562 338.558594 473.140625 340.175781 474.640625 341.832031 C 476.140625 343.488281 477.597656 345.179688 479.015625 346.90625 C 480.433594 348.632812 481.808594 350.394531 483.136719 352.1875 C 484.46875 353.980469 485.753906 355.808594 486.996094 357.664062 C 488.238281 359.523438 489.429688 361.410156 490.578125 363.324219 C 491.726562 365.242188 492.828125 367.183594 493.882812 369.152344 C 494.933594 371.125 495.9375 373.121094 496.894531 375.136719 C 497.851562 377.15625 498.753906 379.199219 499.609375 381.261719 C 500.464844 383.328125 501.269531 385.410156 502.019531 387.515625 C 502.773438 389.617188 503.472656 391.738281 504.121094 393.875 C 504.769531 396.015625 505.367188 398.167969 505.910156 400.332031 C 506.453125 402.5 506.941406 404.679688 507.378906 406.871094 C 507.8125 409.0625 508.195312 411.261719 508.523438 413.472656 C 508.851562 415.679688 509.125 417.898438 509.34375 420.121094 C 509.5625 422.34375 509.726562 424.570312 509.835938 426.800781 C 509.945312 429.035156 510 431.265625 510 433.5 C 510 435.734375 509.945312 437.964844 509.835938 440.199219 C 509.726562 442.429688 509.5625 444.65625 509.34375 446.878906 C 509.125 449.101562 508.851562 451.320312 508.523438 453.527344 C 508.195312 455.738281 507.8125 457.9375 507.378906 460.128906 C 506.941406 462.320312 506.453125 464.5 505.910156 466.667969 C 505.367188 468.832031 504.769531 470.984375 504.121094 473.125 C 503.472656 475.261719 502.773438 477.382812 502.019531 479.484375 C 501.269531 481.589844 500.464844 483.671875 499.609375 485.734375 C 498.753906 487.800781 497.851562 489.839844 496.894531 491.859375 C 495.9375 493.878906 494.933594 495.875 493.882812 497.84375 C 492.828125 499.816406 491.726562 501.757812 490.578125 503.675781 C 489.429688 505.589844 488.238281 507.476562 486.996094 509.335938 C 485.753906 511.191406 484.46875 513.019531 483.136719 514.8125 C 481.808594 516.605469 480.433594 518.367188 479.015625 520.09375 C 477.597656 521.820312 476.140625 523.511719 474.640625 525.167969 C 473.140625 526.824219 471.601562 528.441406 470.019531 530.019531 C 468.441406 531.597656 466.824219 533.140625 465.167969 534.640625 C 463.511719 536.140625 461.820312 537.597656 460.09375 539.015625 C 458.367188 540.433594 456.605469 541.808594 454.8125 543.136719 C 453.019531 544.46875 451.191406 545.753906 449.335938 546.996094 C 447.476562 548.238281 445.589844 549.429688 443.675781 550.578125 C 441.757812 551.726562 439.816406 552.828125 437.84375 553.882812 C 435.875 554.933594 433.878906 555.9375 431.859375 556.894531 C 429.84375 557.847656 427.800781 558.753906 425.734375 559.609375 C 423.671875 560.464844 421.589844 561.269531 419.484375 562.019531 C 417.382812 562.773438 415.261719 563.472656 413.125 564.121094 C 410.984375 564.769531 408.832031 565.367188 406.667969 565.910156 C 404.5 566.453125 402.320312 566.941406 400.128906 567.378906 C 397.9375 567.8125 395.738281 568.195312 393.527344 568.523438 C 391.320312 568.851562 389.101562 569.125 386.878906 569.34375 C 384.65625 569.5625 382.429688 569.726562 380.199219 569.835938 C 377.964844 569.945312 375.734375 570 373.5 570 Z M 373.5 570 " fill-opacity="1" fill-rule="nonzero"/><path fill="#a7233a" d="M 205.5 1620 C 202.40625 1620 199.316406 1619.925781 196.226562 1619.773438 C 193.136719 1619.621094 190.054688 1619.394531 186.976562 1619.089844 C 183.898438 1618.785156 180.828125 1618.40625 177.769531 1617.953125 C 174.707031 1617.5 171.660156 1616.972656 168.628906 1616.367188 C 165.59375 1615.765625 162.578125 1615.085938 159.578125 1614.335938 C 156.578125 1613.585938 153.597656 1612.757812 150.636719 1611.863281 C 147.675781 1610.964844 144.742188 1609.992188 141.828125 1608.953125 C 138.914062 1607.910156 136.03125 1606.796875 133.171875 1605.613281 C 130.316406 1604.429688 127.488281 1603.175781 124.691406 1601.855469 C 121.894531 1600.53125 119.132812 1599.140625 116.40625 1597.683594 C 113.679688 1596.222656 110.988281 1594.699219 108.335938 1593.109375 C 105.679688 1591.519531 103.070312 1589.867188 100.496094 1588.148438 C 97.925781 1586.429688 95.398438 1584.648438 92.914062 1582.804688 C 90.429688 1580.964844 87.992188 1579.0625 85.601562 1577.097656 C 83.207031 1575.136719 80.867188 1573.117188 78.574219 1571.039062 C 76.285156 1568.960938 74.042969 1566.828125 71.855469 1564.644531 C 69.667969 1562.457031 67.539062 1560.214844 65.460938 1557.925781 C 63.382812 1555.632812 61.363281 1553.292969 59.402344 1550.898438 C 57.4375 1548.507812 55.535156 1546.070312 53.695312 1543.585938 C 51.851562 1541.101562 50.070312 1538.574219 48.351562 1536.003906 C 46.632812 1533.429688 44.980469 1530.816406 43.390625 1528.164062 C 41.800781 1525.511719 40.273438 1522.820312 38.816406 1520.09375 C 37.359375 1517.367188 35.96875 1514.605469 34.644531 1511.808594 C 33.324219 1509.011719 32.070312 1506.183594 30.886719 1503.328125 C 29.703125 1500.46875 28.589844 1497.585938 27.546875 1494.671875 C 26.507812 1491.757812 25.535156 1488.824219 24.636719 1485.863281 C 23.742188 1482.902344 22.914062 1479.921875 22.164062 1476.921875 C 21.414062 1473.921875 20.734375 1470.90625 20.132812 1467.871094 C 19.527344 1464.839844 19 1461.792969 18.546875 1458.730469 C 18.089844 1455.671875 17.714844 1452.601562 17.410156 1449.523438 C 17.105469 1446.445312 16.878906 1443.363281 16.726562 1440.273438 C 16.574219 1437.183594 16.5 1434.09375 16.5 1431 C 16.5 1427.90625 16.574219 1424.816406 16.726562 1421.726562 C 16.878906 1418.636719 17.105469 1415.554688 17.410156 1412.476562 C 17.714844 1409.394531 18.089844 1406.328125 18.546875 1403.269531 C 19 1400.207031 19.527344 1397.160156 20.132812 1394.128906 C 20.734375 1391.09375 21.414062 1388.078125 22.164062 1385.078125 C 22.914062 1382.074219 23.742188 1379.097656 24.636719 1376.136719 C 25.535156 1373.175781 26.507812 1370.238281 27.546875 1367.328125 C 28.589844 1364.414062 29.703125 1361.53125 30.886719 1358.671875 C 32.070312 1355.816406 33.324219 1352.988281 34.644531 1350.191406 C 35.96875 1347.394531 37.359375 1344.632812 38.816406 1341.90625 C 40.273438 1339.179688 41.800781 1336.488281 43.390625 1333.835938 C 44.980469 1331.179688 46.632812 1328.570312 48.351562 1325.996094 C 50.070312 1323.425781 51.851562 1320.898438 53.695312 1318.414062 C 55.535156 1315.929688 57.4375 1313.492188 59.402344 1311.097656 C 61.363281 1308.707031 63.382812 1306.367188 65.460938 1304.074219 C 67.539062 1301.785156 69.667969 1299.542969 71.855469 1297.355469 C 74.042969 1295.167969 76.285156 1293.039062 78.574219 1290.960938 C 80.867188 1288.882812 83.207031 1286.863281 85.601562 1284.902344 C 87.992188 1282.9375 90.429688 1281.035156 92.914062 1279.195312 C 95.398438 1277.351562 97.925781 1275.570312 100.496094 1273.851562 C 103.070312 1272.132812 105.679688 1270.480469 108.335938 1268.890625 C 110.988281 1267.300781 113.679688 1265.773438 116.40625 1264.316406 C 119.132812 1262.859375 121.894531 1261.46875 124.691406 1260.144531 C 127.488281 1258.824219 130.316406 1257.570312 133.171875 1256.386719 C 136.03125 1255.203125 138.914062 1254.089844 141.828125 1253.046875 C 144.742188 1252.003906 147.675781 1251.035156 150.636719 1250.136719 C 153.597656 1249.238281 156.578125 1248.414062 159.578125 1247.664062 C 162.578125 1246.914062 165.59375 1246.234375 168.628906 1245.632812 C 171.660156 1245.027344 174.707031 1244.5 177.769531 1244.046875 C 180.828125 1243.589844 183.898438 1243.214844 186.976562 1242.910156 C 190.054688 1242.605469 193.136719 1242.378906 196.226562 1242.226562 C 199.316406 1242.074219 202.40625 1242 205.5 1242 C 208.59375 1242 211.683594 1242.074219 214.773438 1242.226562 C 217.863281 1242.378906 220.945312 1242.605469 224.023438 1242.910156 C 227.101562 1243.214844 230.171875 1243.589844 233.230469 1244.046875 C 236.292969 1244.5 239.339844 1245.027344 242.371094 1245.632812 C 245.40625 1246.234375 248.421875 1246.914062 251.421875 1247.664062 C 254.421875 1248.414062 257.402344 1249.238281 260.363281 1250.136719 C 263.324219 1251.035156 266.261719 1252.003906 269.171875 1253.046875 C 272.085938 1254.089844 274.96875 1255.203125 277.828125 1256.386719 C 280.683594 1257.570312 283.511719 1258.824219 286.308594 1260.144531 C 289.105469 1261.46875 291.867188 1262.859375 294.59375 1264.316406 C 297.320312 1265.773438 300.011719 1267.300781 302.664062 1268.890625 C 305.320312 1270.480469 307.929688 1272.132812 310.503906 1273.851562 C 313.074219 1275.570312 315.601562 1277.351562 318.085938 1279.195312 C 320.570312 1281.035156 323.007812 1282.9375 325.398438 1284.902344 C 327.792969 1286.863281 330.132812 1288.882812 332.425781 1290.960938 C 334.714844 1293.039062 336.957031 1295.167969 339.144531 1297.355469 C 341.332031 1299.542969 343.460938 1301.78125 345.539062 1304.074219 C 347.617188 1306.367188 349.636719 1308.707031 351.597656 1311.097656 C 353.5625 1313.492188 355.464844 1315.929688 357.304688 1318.414062 C 359.148438 1320.898438 360.929688 1323.425781 362.648438 1325.996094 C 364.367188 1328.570312 366.019531 1331.179688 367.609375 1333.835938 C 369.199219 1336.488281 370.726562 1339.179688 372.183594 1341.90625 C 373.640625 1344.632812 375.03125 1347.394531 376.355469 1350.191406 C 377.675781 1352.988281 378.929688 1355.816406 380.113281 1358.671875 C 381.296875 1361.53125 382.410156 1364.414062 383.453125 1367.328125 C 384.492188 1370.238281 385.464844 1373.175781 386.363281 1376.136719 C 387.257812 1379.097656 388.085938 1382.074219 388.835938 1385.078125 C 389.585938 1388.078125 390.265625 1391.09375 390.867188 1394.128906 C 391.472656 1397.160156 392 1400.207031 392.453125 1403.269531 C 392.90625 1406.328125 393.285156 1409.394531 393.589844 1412.476562 C 393.894531 1415.554688 394.121094 1418.636719 394.273438 1421.726562 C 394.425781 1424.816406 394.5 1427.90625 394.5 1431 C 394.5 1434.09375 394.425781 1437.183594 394.273438 1440.273438 C 394.121094 1443.363281 393.894531 1446.445312 393.589844 1449.523438 C 393.285156 1452.601562 392.90625 1455.671875 392.453125 1458.730469 C 392 1461.792969 391.472656 1464.839844 390.867188 1467.871094 C 390.265625 1470.90625 389.585938 1473.921875 388.835938 1476.921875 C 388.085938 1479.921875 387.257812 1482.902344 386.363281 1485.863281 C 385.464844 1488.824219 384.492188 1491.757812 383.453125 1494.671875 C 382.410156 1497.585938 381.296875 1500.46875 380.113281 1503.328125 C 378.929688 1506.183594 377.675781 1509.011719 376.355469 1511.808594 C 375.03125 1514.605469 373.640625 1517.367188 372.183594 1520.09375 C 370.726562 1522.820312 369.199219 1525.511719 367.609375 1528.164062 C 366.019531 1530.816406 364.367188 1533.429688 362.648438 1536.003906 C 360.929688 1538.574219 359.148438 1541.101562 357.304688 1543.585938 C 355.464844 1546.070312 353.5625 1548.507812 351.597656 1550.898438 C 349.636719 1553.292969 347.617188 1555.632812 345.539062 1557.925781 C 343.460938 1560.214844 341.332031 1562.457031 339.144531 1564.644531 C 336.957031 1566.828125 334.714844 1568.960938 332.425781 1571.039062 C 330.132812 1573.117188 327.792969 1575.136719 325.398438 1577.097656 C 323.007812 1579.0625 320.570312 1580.964844 318.085938 1582.804688 C 315.601562 1584.648438 313.074219 1586.429688 310.503906 1588.148438 C 307.929688 1589.867188 305.320312 1591.519531 302.664062 1593.109375 C 300.011719 1594.699219 297.320312 1596.222656 294.59375 1597.683594 C 291.867188 1599.140625 289.105469 1600.53125 286.308594 1601.855469 C 283.511719 1603.175781 280.683594 1604.429688 277.828125 1605.613281 C 274.96875 1606.796875 272.085938 1607.910156 269.171875 1608.953125 C 266.261719 1609.992188 263.324219 1610.964844 260.363281 1611.863281 C 257.402344 1612.757812 254.421875 1613.585938 251.421875 1614.335938 C 248.421875 1615.085938 245.40625 1615.765625 242.371094 1616.367188 C 239.339844 1616.972656 236.292969 1617.5 233.230469 1617.953125 C 230.171875 1618.40625 227.101562 1618.785156 224.023438 1619.089844 C 220.945312 1619.394531 217.863281 1619.621094 214.773438 1619.773438 C 211.683594 1619.925781 208.59375 1620 205.5 1620 Z M 205.5 1620 " fill-opacity="1" fill-rule="nonzero"/><path fill="#a7233a" d="M 721.5 1401 C 720.320312 1401 719.144531 1400.972656 717.96875 1400.914062 C 716.789062 1400.855469 715.617188 1400.769531 714.441406 1400.652344 C 713.269531 1400.539062 712.101562 1400.394531 710.933594 1400.21875 C 709.769531 1400.046875 708.609375 1399.847656 707.453125 1399.617188 C 706.296875 1399.386719 705.148438 1399.128906 704.003906 1398.84375 C 702.863281 1398.554688 701.726562 1398.242188 700.597656 1397.898438 C 699.472656 1397.558594 698.351562 1397.1875 697.242188 1396.789062 C 696.132812 1396.394531 695.035156 1395.96875 693.945312 1395.519531 C 692.859375 1395.066406 691.78125 1394.589844 690.714844 1394.085938 C 689.652344 1393.582031 688.597656 1393.054688 687.558594 1392.5 C 686.519531 1391.941406 685.496094 1391.363281 684.484375 1390.757812 C 683.472656 1390.148438 682.480469 1389.519531 681.5 1388.867188 C 680.519531 1388.210938 679.554688 1387.53125 678.609375 1386.832031 C 677.664062 1386.128906 676.734375 1385.402344 675.824219 1384.65625 C 674.914062 1383.910156 674.019531 1383.140625 673.148438 1382.347656 C 672.273438 1381.558594 671.421875 1380.746094 670.589844 1379.910156 C 669.753906 1379.078125 668.941406 1378.226562 668.152344 1377.351562 C 667.359375 1376.480469 666.589844 1375.585938 665.84375 1374.675781 C 665.09375 1373.765625 664.371094 1372.835938 663.667969 1371.890625 C 662.96875 1370.945312 662.289062 1369.980469 661.632812 1369 C 660.980469 1368.019531 660.347656 1367.027344 659.742188 1366.015625 C 659.136719 1365.003906 658.558594 1363.980469 658 1362.941406 C 657.445312 1361.902344 656.917969 1360.847656 656.414062 1359.785156 C 655.910156 1358.71875 655.429688 1357.640625 654.980469 1356.554688 C 654.53125 1355.464844 654.105469 1354.367188 653.707031 1353.253906 C 653.3125 1352.144531 652.941406 1351.027344 652.601562 1349.898438 C 652.257812 1348.773438 651.945312 1347.636719 651.65625 1346.496094 C 651.371094 1345.351562 651.113281 1344.203125 650.882812 1343.046875 C 650.652344 1341.890625 650.453125 1340.730469 650.277344 1339.5625 C 650.105469 1338.398438 649.960938 1337.230469 649.847656 1336.058594 C 649.730469 1334.882812 649.644531 1333.710938 649.585938 1332.53125 C 649.527344 1331.355469 649.5 1330.179688 649.5 1329 C 649.5 1327.820312 649.527344 1326.644531 649.585938 1325.46875 C 649.644531 1324.289062 649.730469 1323.117188 649.847656 1321.941406 C 649.960938 1320.769531 650.105469 1319.601562 650.277344 1318.433594 C 650.453125 1317.269531 650.652344 1316.109375 650.882812 1314.953125 C 651.113281 1313.796875 651.371094 1312.648438 651.65625 1311.503906 C 651.945312 1310.363281 652.257812 1309.226562 652.601562 1308.097656 C 652.941406 1306.972656 653.3125 1305.851562 653.707031 1304.742188 C 654.105469 1303.632812 654.53125 1302.535156 654.980469 1301.445312 C 655.429688 1300.359375 655.910156 1299.28125 656.414062 1298.214844 C 656.917969 1297.152344 657.445312 1296.097656 658 1295.058594 C 658.558594 1294.019531 659.136719 1292.996094 659.742188 1291.984375 C 660.347656 1290.972656 660.980469 1289.976562 661.632812 1289 C 662.289062 1288.019531 662.96875 1287.054688 663.667969 1286.109375 C 664.371094 1285.164062 665.09375 1284.234375 665.84375 1283.324219 C 666.589844 1282.414062 667.359375 1281.519531 668.152344 1280.648438 C 668.941406 1279.773438 669.753906 1278.921875 670.589844 1278.089844 C 671.421875 1277.253906 672.273438 1276.441406 673.148438 1275.652344 C 674.019531 1274.859375 674.914062 1274.089844 675.824219 1273.34375 C 676.734375 1272.59375 677.664062 1271.871094 678.609375 1271.167969 C 679.554688 1270.46875 680.519531 1269.789062 681.5 1269.132812 C 682.480469 1268.480469 683.472656 1267.847656 684.484375 1267.242188 C 685.496094 1266.636719 686.519531 1266.058594 687.558594 1265.5 C 688.597656 1264.945312 689.652344 1264.417969 690.714844 1263.914062 C 691.78125 1263.410156 692.859375 1262.929688 693.945312 1262.480469 C 695.035156 1262.03125 696.132812 1261.605469 697.242188 1261.207031 C 698.351562 1260.8125 699.472656 1260.441406 700.597656 1260.101562 C 701.726562 1259.757812 702.863281 1259.445312 704.003906 1259.15625 C 705.148438 1258.871094 706.296875 1258.613281 707.453125 1258.382812 C 708.609375 1258.152344 709.769531 1257.953125 710.933594 1257.777344 C 712.101562 1257.605469 713.269531 1257.460938 714.441406 1257.347656 C 715.617188 1257.230469 716.789062 1257.144531 717.96875 1257.085938 C 719.144531 1257.027344 720.320312 1257 721.5 1257 C 722.679688 1257 723.855469 1257.027344 725.03125 1257.085938 C 726.210938 1257.144531 727.382812 1257.230469 728.558594 1257.347656 C 729.730469 1257.460938 730.898438 1257.605469 732.066406 1257.777344 C 733.230469 1257.953125 734.390625 1258.152344 735.546875 1258.382812 C 736.703125 1258.613281 737.851562 1258.871094 738.996094 1259.15625 C 740.136719 1259.445312 741.273438 1259.757812 742.402344 1260.101562 C 743.527344 1260.441406 744.648438 1260.8125 745.757812 1261.207031 C 746.867188 1261.605469 747.964844 1262.03125 749.054688 1262.480469 C 750.140625 1262.929688 751.21875 1263.410156 752.285156 1263.914062 C 753.347656 1264.417969 754.402344 1264.945312 755.441406 1265.5 C 756.480469 1266.058594 757.503906 1266.636719 758.515625 1267.242188 C 759.527344 1267.847656 760.519531 1268.480469 761.5 1269.132812 C 762.480469 1269.789062 763.445312 1270.46875 764.390625 1271.167969 C 765.335938 1271.871094 766.265625 1272.59375 767.175781 1273.34375 C 768.085938 1274.089844 768.980469 1274.859375 769.851562 1275.652344 C 770.726562 1276.441406 771.578125 1277.253906 772.410156 1278.089844 C 773.246094 1278.921875 774.058594 1279.773438 774.847656 1280.648438 C 775.640625 1281.519531 776.410156 1282.414062 777.15625 1283.324219 C 777.902344 1284.234375 778.628906 1285.164062 779.332031 1286.109375 C 780.03125 1287.054688 780.710938 1288.019531 781.367188 1289 C 782.019531 1289.976562 782.652344 1290.972656 783.257812 1291.984375 C 783.863281 1292.996094 784.441406 1294.019531 785 1295.058594 C 785.554688 1296.097656 786.082031 1297.152344 786.585938 1298.214844 C 787.089844 1299.28125 787.566406 1300.359375 788.019531 1301.445312 C 788.46875 1302.535156 788.894531 1303.632812 789.292969 1304.742188 C 789.6875 1305.851562 790.058594 1306.972656 790.398438 1308.097656 C 790.742188 1309.226562 791.054688 1310.363281 791.34375 1311.503906 C 791.628906 1312.648438 791.886719 1313.796875 792.117188 1314.953125 C 792.347656 1316.109375 792.546875 1317.269531 792.71875 1318.433594 C 792.894531 1319.601562 793.039062 1320.769531 793.152344 1321.941406 C 793.269531 1323.117188 793.355469 1324.289062 793.414062 1325.46875 C 793.472656 1326.644531 793.5 1327.820312 793.5 1329 C 793.5 1330.179688 793.472656 1331.355469 793.414062 1332.53125 C 793.355469 1333.710938 793.269531 1334.882812 793.152344 1336.058594 C 793.039062 1337.230469 792.894531 1338.398438 792.71875 1339.5625 C 792.546875 1340.730469 792.347656 1341.890625 792.117188 1343.046875 C 791.886719 1344.203125 791.628906 1345.351562 791.34375 1346.496094 C 791.054688 1347.636719 790.742188 1348.773438 790.398438 1349.898438 C 790.058594 1351.027344 789.6875 1352.144531 789.292969 1353.253906 C 788.894531 1354.367188 788.46875 1355.464844 788.019531 1356.554688 C 787.566406 1357.640625 787.089844 1358.71875 786.585938 1359.785156 C 786.082031 1360.847656 785.554688 1361.902344 785 1362.941406 C 784.441406 1363.980469 783.863281 1365.003906 783.257812 1366.015625 C 782.652344 1367.027344 782.019531 1368.019531 781.367188 1369 C 780.710938 1369.980469 780.03125 1370.945312 779.332031 1371.890625 C 778.628906 1372.835938 777.902344 1373.765625 777.15625 1374.675781 C 776.410156 1375.585938 775.640625 1376.480469 774.847656 1377.351562 C 774.058594 1378.226562 773.246094 1379.078125 772.410156 1379.910156 C 771.578125 1380.746094 770.726562 1381.558594 769.851562 1382.347656 C 768.980469 1383.140625 768.085938 1383.910156 767.175781 1384.65625 C 766.265625 1385.402344 765.335938 1386.128906 764.390625 1386.832031 C 763.445312 1387.53125 762.480469 1388.210938 761.5 1388.867188 C 760.519531 1389.519531 759.527344 1390.148438 758.515625 1390.757812 C 757.503906 1391.363281 756.480469 1391.941406 755.441406 1392.5 C 754.402344 1393.054688 753.347656 1393.582031 752.285156 1394.085938 C 751.21875 1394.589844 750.140625 1395.066406 749.054688 1395.519531 C 747.964844 1395.96875 746.867188 1396.394531 745.757812 1396.789062 C 744.648438 1397.1875 743.527344 1397.558594 742.402344 1397.898438 C 741.273438 1398.242188 740.136719 1398.554688 738.996094 1398.84375 C 737.851562 1399.128906 736.703125 1399.386719 735.546875 1399.617188 C 734.390625 1399.847656 733.230469 1400.046875 732.066406 1400.21875 C 730.898438 1400.394531 729.730469 1400.539062 728.558594 1400.652344 C 727.382812 1400.769531 726.210938 1400.855469 725.03125 1400.914062 C 723.855469 1400.972656 722.679688 1401 721.5 1401 Z M 721.5 1401 " fill-opacity="1" fill-rule="nonzero"/><path fill="#a7233a" d="M 786 360 C 782.710938 360 779.421875 359.917969 776.136719 359.757812 C 772.851562 359.597656 769.570312 359.355469 766.296875 359.03125 C 763.023438 358.710938 759.761719 358.308594 756.507812 357.824219 C 753.253906 357.339844 750.011719 356.78125 746.785156 356.136719 C 743.558594 355.496094 740.351562 354.777344 737.160156 353.976562 C 733.96875 353.175781 730.800781 352.300781 727.652344 351.34375 C 724.503906 350.390625 721.382812 349.359375 718.285156 348.25 C 715.1875 347.140625 712.121094 345.957031 709.082031 344.699219 C 706.042969 343.441406 703.035156 342.109375 700.0625 340.703125 C 697.085938 339.296875 694.148438 337.816406 691.25 336.265625 C 688.347656 334.714844 685.488281 333.09375 682.664062 331.402344 C 679.84375 329.710938 677.066406 327.953125 674.332031 326.125 C 671.59375 324.296875 668.90625 322.402344 666.265625 320.445312 C 663.621094 318.484375 661.03125 316.460938 658.488281 314.375 C 655.945312 312.289062 653.453125 310.140625 651.015625 307.929688 C 648.578125 305.722656 646.199219 303.453125 643.871094 301.128906 C 641.546875 298.800781 639.277344 296.421875 637.070312 293.984375 C 634.859375 291.546875 632.710938 289.054688 630.625 286.511719 C 628.539062 283.96875 626.515625 281.378906 624.554688 278.734375 C 622.597656 276.09375 620.703125 273.40625 618.875 270.667969 C 617.046875 267.933594 615.289062 265.15625 613.597656 262.335938 C 611.90625 259.511719 610.285156 256.652344 608.734375 253.75 C 607.183594 250.847656 605.703125 247.914062 604.296875 244.9375 C 602.890625 241.964844 601.558594 238.957031 600.300781 235.917969 C 599.042969 232.878906 597.859375 229.8125 596.75 226.714844 C 595.640625 223.617188 594.609375 220.496094 593.65625 217.347656 C 592.699219 214.199219 591.824219 211.03125 591.023438 207.839844 C 590.222656 204.648438 589.503906 201.4375 588.863281 198.214844 C 588.21875 194.988281 587.65625 191.746094 587.175781 188.492188 C 586.691406 185.238281 586.289062 181.976562 585.96875 178.703125 C 585.644531 175.429688 585.402344 172.148438 585.242188 168.863281 C 585.082031 165.578125 585 162.289062 585 159 C 585 155.710938 585.082031 152.421875 585.242188 149.136719 C 585.402344 145.851562 585.644531 142.570312 585.96875 139.296875 C 586.289062 136.023438 586.691406 132.761719 587.175781 129.507812 C 587.65625 126.253906 588.21875 123.011719 588.863281 119.785156 C 589.503906 116.558594 590.222656 113.351562 591.023438 110.160156 C 591.824219 106.96875 592.699219 103.800781 593.65625 100.652344 C 594.609375 97.503906 595.640625 94.382812 596.75 91.285156 C 597.859375 88.1875 599.042969 85.121094 600.300781 82.082031 C 601.558594 79.042969 602.890625 76.035156 604.296875 73.0625 C 605.703125 70.085938 607.183594 67.148438 608.734375 64.25 C 610.285156 61.347656 611.90625 58.488281 613.597656 55.664062 C 615.289062 52.84375 617.046875 50.066406 618.875 47.332031 C 620.703125 44.59375 622.597656 41.90625 624.554688 39.265625 C 626.515625 36.621094 628.539062 34.03125 630.625 31.488281 C 632.710938 28.945312 634.859375 26.453125 637.070312 24.015625 C 639.277344 21.578125 641.546875 19.199219 643.871094 16.871094 C 646.199219 14.546875 648.578125 12.277344 651.015625 10.070312 C 653.453125 7.859375 655.945312 5.710938 658.488281 3.625 C 661.03125 1.539062 663.621094 -0.484375 666.265625 -2.445312 C 668.90625 -4.402344 671.59375 -6.296875 674.332031 -8.125 C 677.066406 -9.953125 679.84375 -11.710938 682.664062 -13.402344 C 685.488281 -15.09375 688.347656 -16.714844 691.25 -18.265625 C 694.148438 -19.816406 697.085938 -21.296875 700.0625 -22.703125 C 703.035156 -24.109375 706.042969 -25.441406 709.082031 -26.699219 C 712.121094 -27.957031 715.1875 -29.140625 718.285156 -30.25 C 721.382812 -31.359375 724.503906 -32.390625 727.652344 -33.34375 C 730.800781 -34.300781 733.96875 -35.175781 737.160156 -35.976562 C 740.351562 -36.777344 743.558594 -37.496094 746.785156 -38.136719 C 750.011719 -38.78125 753.253906 -39.34375 756.507812 -39.824219 C 759.761719 -40.308594 763.023438 -40.710938 766.296875 -41.03125 C 769.570312 -41.355469 772.851562 -41.597656 776.136719 -41.757812 C 779.421875 -41.917969 782.710938 -42 786 -42 C 789.289062 -42 792.578125 -41.917969 795.863281 -41.757812 C 799.148438 -41.597656 802.425781 -41.355469 805.703125 -41.03125 C 808.976562 -40.710938 812.238281 -40.308594 815.492188 -39.824219 C 818.746094 -39.34375 821.988281 -38.78125 825.214844 -38.136719 C 828.4375 -37.496094 831.648438 -36.777344 834.839844 -35.976562 C 838.03125 -35.175781 841.199219 -34.300781 844.347656 -33.34375 C 847.496094 -32.390625 850.617188 -31.359375 853.714844 -30.25 C 856.8125 -29.140625 859.878906 -27.957031 862.917969 -26.699219 C 865.957031 -25.441406 868.964844 -24.109375 871.9375 -22.703125 C 874.914062 -21.296875 877.847656 -19.816406 880.75 -18.265625 C 883.652344 -16.714844 886.511719 -15.09375 889.335938 -13.402344 C 892.15625 -11.710938 894.933594 -9.953125 897.667969 -8.125 C 900.40625 -6.296875 903.09375 -4.402344 905.734375 -2.445312 C 908.378906 -0.484375 910.96875 1.539062 913.511719 3.625 C 916.054688 5.710938 918.546875 7.859375 920.984375 10.070312 C 923.421875 12.277344 925.800781 14.546875 928.128906 16.871094 C 930.453125 19.199219 932.722656 21.578125 934.929688 24.015625 C 937.140625 26.453125 939.289062 28.945312 941.375 31.488281 C 943.460938 34.03125 945.484375 36.621094 947.445312 39.265625 C 949.402344 41.90625 951.296875 44.59375 953.125 47.332031 C 954.953125 50.066406 956.710938 52.84375 958.402344 55.664062 C 960.09375 58.488281 961.714844 61.347656 963.265625 64.25 C 964.816406 67.148438 966.296875 70.085938 967.703125 73.0625 C 969.109375 76.035156 970.441406 79.042969 971.699219 82.082031 C 972.957031 85.121094 974.140625 88.1875 975.25 91.285156 C 976.359375 94.382812 977.390625 97.503906 978.34375 100.652344 C 979.300781 103.800781 980.175781 106.96875 980.976562 110.160156 C 981.777344 113.351562 982.496094 116.558594 983.136719 119.785156 C 983.78125 123.011719 984.339844 126.253906 984.824219 129.507812 C 985.308594 132.761719 985.710938 136.023438 986.03125 139.296875 C 986.355469 142.570312 986.597656 145.851562 986.757812 149.136719 C 986.917969 152.421875 987 155.710938 987 159 C 987 162.289062 986.917969 165.578125 986.757812 168.863281 C 986.597656 172.148438 986.355469 175.429688 986.03125 178.703125 C 985.710938 181.976562 985.308594 185.238281 984.824219 188.492188 C 984.339844 191.746094 983.78125 194.988281 983.136719 198.214844 C 982.496094 201.4375 981.777344 204.648438 980.976562 207.839844 C 980.175781 211.03125 979.300781 214.199219 978.34375 217.347656 C 977.390625 220.496094 976.359375 223.617188 975.25 226.714844 C 974.140625 229.8125 972.957031 232.878906 971.699219 235.917969 C 970.441406 238.957031 969.109375 241.964844 967.703125 244.9375 C 966.296875 247.914062 964.816406 250.847656 963.265625 253.75 C 961.714844 256.652344 960.09375 259.511719 958.402344 262.335938 C 956.710938 265.15625 954.953125 267.933594 953.125 270.667969 C 951.296875 273.40625 949.402344 276.09375 947.445312 278.734375 C 945.484375 281.378906 943.460938 283.96875 941.375 286.511719 C 939.289062 289.054688 937.140625 291.546875 934.929688 293.984375 C 932.722656 296.421875 930.453125 298.800781 928.128906 301.128906 C 925.800781 303.453125 923.421875 305.722656 920.984375 307.929688 C 918.546875 310.140625 916.054688 312.289062 913.511719 314.375 C 910.96875 316.460938 908.378906 318.484375 905.734375 320.445312 C 903.09375 322.402344 900.40625 324.296875 897.667969 326.125 C 894.933594 327.953125 892.15625 329.710938 889.335938 331.402344 C 886.511719 333.09375 883.652344 334.714844 880.75 336.265625 C 877.847656 337.816406 874.914062 339.296875 871.9375 340.703125 C 868.964844 342.109375 865.957031 343.441406 862.917969 344.699219 C 859.878906 345.957031 856.8125 347.140625 853.714844 348.25 C 850.617188 349.359375 847.496094 350.390625 844.347656 351.34375 C 841.199219 352.300781 838.03125 353.175781 834.839844 353.976562 C 831.648438 354.777344 828.4375 355.496094 825.214844 356.136719 C 821.988281 356.78125 818.746094 357.339844 815.492188 357.824219 C 812.238281 358.308594 808.976562 358.710938 805.703125 359.03125 C 802.425781 359.355469 799.148438 359.597656 795.863281 359.757812 C 792.578125 359.917969 789.289062 360 786 360 Z M 786 360 " fill-opacity="1" fill-rule="nonzero"/></svg>